<?xml version="1.0" encoding="utf-8"?>
<!-- Generator: Adobe Illustrator 24.1.2, SVG Export Plug-In . SVG Version: 6.00 Build 0)  -->
<svg version="1.1" id="Layer_1" xmlns="http://www.w3.org/2000/svg" xmlns:xlink="http://www.w3.org/1999/xlink" x="0px" y="0px" viewBox="0 0 595.28 841.89" style="enable-background:new 0 0 595.28 841.89;" xml:space="preserve">
    <style type="text/css">
        .st0 {
            fill: #FFFFFF;
        }

    </style>
    <g>
        <path class="st0" d="M477.38,332.3c-13.3,21.61-32.35,36.11-57.1,45.37c0-5.26,0.09-9.45-0.03-13.65
		c-0.19-7.23-4.17-11.24-11.45-11.29c-15.57-0.09-31.13-0.03-45.75-0.03c-5.62-13.43-10.99-26.24-16.55-39.54h9.89
		c17.26-0.01,34.53,0.04,51.79-0.05c8.04-0.04,10.77-2.93,10.8-11.13c0.06-9.08,0.04-18.16,0.03-27.23
		c-0.01-7.28-2.96-10.78-10.15-11.87c-1.86-0.28-3.79-0.13-5.67-0.13c-75.58,0-151.17-0.01-226.75,0.03
		c-2.69,0.01-5.41,0.35-8.07,0.79c-5.65,0.89-8.25,4.24-8.18,10.02c0.15,13.08-0.06,26.17,0.22,39.24c0.14,6.45,3.1,9.01,9.47,9.04
		c12.41,0.06,24.88-0.54,37.25,0.16c17.05,0.98,34.33,1.05,50.6,7.47c11.68,4.62,21.56,11.44,28.63,23.2H182.48
		c-4.21,0-8.42-0.2-12.63,0.05c-5.67,0.34-9.55,2.76-9.55,9.26c0,9.7-0.49,19.42-0.15,29.11c0.33,9.44,3.1,11.79,12.48,11.83
		c14.31,0.06,28.63,0.01,42.95,0.01c22.74,0,45.47,0,68.21,0.01h6.93c-4.79,14.14-12.84,24.38-24.85,31.35
		c-14.33,8.32-29.88,12.74-46.41,13.36c-16.15,0.61-32.32,0.91-48.49,1.28c-7.73,0.18-10.44,2.23-10.61,9.91
		c-0.3,12.65-0.18,25.31,0.11,37.96c0.05,2.52,1.03,5.59,2.67,7.42c10.89,12.21,22.25,23.99,33.12,36.23
		c14.2,15.96,28.08,32.21,42.08,48.36c11.12,12.82,22.2,25.69,33.29,38.54c1.15,1.33,2.18,2.77,3.9,4.97H117.14
		c-0.2-2.09-0.61-4.29-0.61-6.5c-0.04-158.53-0.03-317.08-0.1-475.61c0-4.64,0.52-7.28,6.38-7.27c75.8,0.23,151.59-0.27,227.37,0.44
		c31.02,0.29,60.82,7.66,87.78,23.89c32.19,19.38,50.4,47.94,54.97,85.41C496.38,281.03,492.48,307.78,477.38,332.3z" />
        <path class="st0" d="M409.09,623.69c-13.67,3.76-27.97,5.23-41.98,7.73c-4.95,0.89-8.69-0.63-12.05-4.71
		c-20.67-25.1-41.37-50.21-62.46-74.96c-13.22-15.5-27.16-30.37-40.76-45.55c-1.06-1.18-2-2.47-3.47-4.31
		c58.77-10.13,102.08-36.44,114.36-98.92h40.6c14.19,0.01,16.45-2.15,16.99-16.1c0.01-0.62,0.2-1.23,0.44-2.53
		c13.67,4.13,26.22,9.93,37.44,18.62c26.85,20.8,42.1,48.2,46,81.9C512.05,552.58,475.03,605.54,409.09,623.69z" />
    </g>
</svg>
